<svg width="413" height="99" viewBox="0 0 413 99" fill="none" xmlns="http://www.w3.org/2000/svg">
<path d="M74.24 98C77.03 98 78.73 94.92 77.5 92.54L56.83 52.98L73.72 19.62C75.1 17.21 73.39 14 70.53 14H49.96C48.63 14 47.32 14.76 46.7 16.06L32.41 44H26V17.77C26 15.71 24.38 14.02 22.33 14.02L3.68 14.01C1.65 14.01 0 15.7 0 17.77V94.22C0 96.29 1.66 97.97 3.68 97.97L22.33 98C24.38 98 26 96.31 26 94.22V66H34.67L50.19 95.97C50.86 97.32 52.23 98.07 53.62 98H74.24Z" fill="white"/>
<path d="M90.68 14H151.32C153.36 14 154.99 15.7 155 17.77V32.22C155 34.3 153.36 36 151.32 36H113V44H137.12C139.16 44 140.8 45.68 140.8 47.76V62.24C140.8 64.31 139.17 66 137.12 66H113V75H151.32C153.36 75 155 76.7 155 78.75V94.22C155 96.31 153.36 98 151.32 98H90.68C88.64 98 87 96.31 87 94.22V17.76C87 15.7 88.64 14 90.68 14Z" fill="white"/>
<path d="M169.68 14H230.32C232.36 14 233.99 15.7 234 17.77V32.22C234 34.3 232.36 36 230.32 36H192V44H216.12C218.16 44 219.8 45.68 219.8 47.76V62.24C219.8 64.31 218.17 66 216.12 66H192V76V94.22C192 96.31 190.36 98 188.32 98H169.68C167.64 98 166 96.31 166 94.22V17.76C166 15.7 167.64 14 169.68 14Z" fill="white"/>
<path d="M246.68 14H265.32C267.36 14 268.99 15.7 269 17.77V32.22V36V45V48.76V63.24V67V76V94.22C269 96.31 267.36 98 265.32 98H246.68C244.64 98 243 96.31 243 94.22V17.76C243 15.7 244.64 14 246.68 14Z" fill="white"/>
<path fill-rule="evenodd" clip-rule="evenodd" d="M351.589 92.6357L337.03 70.2631C344.062 65.1993 348.654 53.797 348.654 44.5C348.654 29.061 336.099 13.947 320.618 13.947C320.255 13.947 319.918 13.9911 319.554 14H319.545H283.715C281.658 14 280 15.6438 280 17.6852V94.3059C280 96.3297 281.676 97.9823 283.715 97.9823L302.294 98C304.377 98 306 96.3385 306 94.3059V75H309.5L322.756 96.0027C323.438 97.3195 324.822 98.053 326.223 97.9911H348.318C351.119 97.9823 352.831 94.9687 351.589 92.6357ZM316.699 52.9558V53H306V36H316.593C316.619 36 316.655 35.9911 316.69 35.9911C320.68 35.9911 324 39.5 324 44.5C324 49.5 320.689 52.9381 316.699 52.9558Z" fill="white"/>
<path d="M365 94.101C365 96.2704 366.652 98 368.682 98H406.328C408.358 98 410 96.2704 410 94.101V75H365L365 94.101Z" fill="white"/>
<path d="M409.497 0L365.305 0.0579225C363.385 0.0579225 361.899 1.83423 362.005 3.86154L365.025 68H409.94L412.999 3.69742C413.056 1.66046 411.426 0 409.497 0ZM404.712 20.4661C404.712 22.9761 404.268 23.594 401.76 23.5747H373.321C371.16 23.5747 370.369 23.1692 370.369 21.0068L369.742 10.8895C369.742 9.01669 370.012 8.02234 372.511 8.06096H402.474C404.789 8.06096 405.426 8.73673 405.069 10.9861L404.712 20.4661Z" fill="white"/>
</svg>
