<svg width="523" height="523" viewBox="0 0 523 523" fill="none" xmlns="http://www.w3.org/2000/svg">
<path d="M404.083 142.906C380.691 114.642 349.443 93.9489 314.291 83.444C279.139 72.9391 241.661 73.094 206.596 83.8891C171.532 94.6842 140.456 115.635 117.299 144.091C94.1414 172.548 79.9423 207.232 76.4971 243.758C73.0519 280.285 80.5155 317.012 97.9439 349.297C115.372 381.582 141.983 407.973 174.41 425.134C206.838 442.295 243.626 449.454 280.122 445.707C316.619 441.961 351.185 427.475 379.449 404.083L354.413 373.833C332.132 392.273 304.883 403.693 276.112 406.646C247.341 409.6 218.34 403.956 192.777 390.428C167.214 376.899 146.236 356.095 132.497 330.644C118.758 305.193 112.874 276.24 115.59 247.446C118.306 218.651 129.499 191.309 147.755 168.876C166.01 146.443 190.508 129.927 218.15 121.417C245.792 112.907 275.337 112.785 303.048 121.066C330.759 129.348 355.393 145.66 373.833 167.941L404.083 142.906Z" fill="#3C1919"/>
<path d="M150.012 311.95C160.165 333.825 176.577 352.199 197.172 364.747C217.768 377.294 241.621 383.453 265.717 382.444C289.812 381.435 313.067 373.304 332.541 359.078C352.016 344.853 366.834 325.172 375.123 302.524C383.412 279.877 384.798 255.28 379.108 231.844C373.418 208.409 360.906 187.187 343.154 170.862C325.403 154.538 303.209 143.843 279.38 140.132C255.55 136.421 231.156 139.859 209.28 150.012L220.404 173.979C237.539 166.026 256.648 163.332 275.314 166.239C293.979 169.146 311.364 177.523 325.269 190.311C339.174 203.098 348.975 219.721 353.432 238.079C357.89 256.436 356.803 275.703 350.31 293.443C343.818 311.183 332.21 326.6 316.956 337.743C301.702 348.886 283.486 355.255 264.611 356.046C245.737 356.836 227.052 352.012 210.92 342.183C194.787 332.354 181.932 317.962 173.979 300.827L150.012 311.95Z" fill="#3C1919"/>
<circle cx="261.177" cy="261.177" r="40.5" fill="#3C1919"/>
<line x1="260.674" y1="187.424" x2="264.815" y2="334.42" stroke="#3C1919" stroke-width="18"/>
<line x1="186.677" y1="259.677" x2="333.732" y2="259.677" stroke="#3C1919" stroke-width="18"/>
<circle cx="260.677" cy="260.677" r="22" fill="#DD3E3E"/>
</svg>
