<svg width="908" height="908" viewBox="0 0 908 908" fill="none" xmlns="http://www.w3.org/2000/svg">
<path d="M702.411 248.411C661.749 199.28 607.431 163.31 546.327 145.049C485.222 126.789 420.074 127.058 359.123 145.823C298.171 164.588 244.153 201.006 203.898 250.471C163.644 299.937 138.962 360.228 132.974 423.721C126.985 487.214 139.959 551.057 170.254 607.177C200.55 663.296 246.806 709.172 303.174 739.003C359.542 768.833 423.49 781.279 486.932 774.765C550.373 768.252 610.458 743.072 659.589 702.411L616.071 649.827C577.34 681.882 529.973 701.732 479.961 706.866C429.949 712.001 379.537 702.19 335.101 678.674C290.665 655.158 254.2 618.993 230.317 574.752C206.435 530.512 196.207 480.183 200.928 430.13C205.649 380.077 225.106 332.549 256.84 293.554C288.573 254.559 331.157 225.85 379.206 211.057C427.256 196.265 478.613 196.052 526.783 210.448C574.953 224.843 617.773 253.199 649.827 291.93L702.411 248.411Z" fill="#3C1919"/>
<path d="M260.764 542.257C278.413 580.283 306.941 612.221 342.741 634.032C378.541 655.844 420.006 666.55 461.89 664.796C503.775 663.042 544.199 648.907 578.051 624.179C611.902 599.451 637.661 565.24 652.069 525.873C666.477 486.505 668.888 443.749 658.997 403.011C649.105 362.273 627.356 325.384 596.499 297.007C565.642 268.63 527.063 250.04 485.641 243.589C444.219 237.138 401.814 243.115 363.788 260.764L383.124 302.424C412.91 288.599 446.126 283.918 478.573 288.971C511.019 294.024 541.239 308.585 565.409 330.813C589.58 353.041 606.617 381.938 614.365 413.848C622.113 445.758 620.224 479.25 608.938 510.087C597.652 540.924 577.475 567.722 550.959 587.092C524.442 606.462 492.778 617.534 459.969 618.907C427.16 620.281 394.681 611.895 366.638 594.81C338.595 577.725 316.248 552.707 302.424 522.922L260.764 542.257Z" fill="#3C1919"/>
<circle cx="454" cy="454" r="70.4004" fill="#3C1919"/>
<line x1="446.483" y1="325.983" x2="453.681" y2="581.504" stroke="#3C1919" stroke-width="18"/>
<line x1="324.498" y1="458.037" x2="580.12" y2="458.037" stroke="#3C1919" stroke-width="18"/>
<circle cx="453.131" cy="453.131" r="38.2422" fill="#DD3E3E"/>
</svg>
